<svg aria-hidden="true" xmlns="http://www.w3.org/2000/svg"><symbol id="i-discord" viewBox="0 0 24 24"><title>Discord</title><path d="M20.317 4.3698a19.7913 19.7913 0 00-4.8851-1.5152.0741.0741 0 00-.0785.0371c-.211.3753-.4447.8648-.6083 1.2495-1.8447-.2762-3.68-.2762-5.4868 0-.1636-.3933-.4058-.8742-.6177-1.2495a.077.077 0 00-.0785-.037 19.7363 19.7363 0 00-4.8852 1.515.0699.0699 0 00-.0321.0277C.5334 9.0458-.319 13.5799.0992 18.0578a.0824.0824 0 00.0312.0561c2.0528 1.5076 4.0413 2.4228 5.9929 3.0294a.0777.0777 0 00.0842-.0276c.4616-.6304.8731-1.2952 1.226-1.9942a.076.076 0 00-.0416-.1057c-.6528-.2476-1.2743-.5495-1.8722-.8923a.077.077 0 01-.0076-.1277c.1258-.0943.2517-.1923.3718-.2914a.0743.0743 0 01.0776-.0105c3.9278 1.7933 8.18 1.7933 12.0614 0a.0739.0739 0 01.0785.0095c.1202.099.246.1981.3728.2924a.077.077 0 01-.0066.1276 12.2986 12.2986 0 01-1.873.8914.0766.0766 0 00-.0407.1067c.3604.698.7719 1.3628 1.225 1.9932a.076.076 0 00.0842.0286c1.961-.6067 3.9495-1.5219 6.0023-3.0294a.077.077 0 00.0313-.0552c.5004-5.177-.8382-9.6739-3.5485-13.6604a.061.061 0 00-.0312-.0286zM8.02 15.3312c-1.1825 0-2.1569-1.0857-2.1569-2.419 0-1.3332.9555-2.4189 2.157-2.4189 1.2108 0 2.1757 1.0952 2.1568 2.419 0 1.3332-.9555 2.4189-2.1569 2.4189zm7.9748 0c-1.1825 0-2.1569-1.0857-2.1569-2.419 0-1.3332.9554-2.4189 2.1569-2.4189 1.2108 0 2.1757 1.0952 2.1568 2.419 0 1.3332-.946 2.4189-2.1568 2.4189Z"/></symbol><symbol id="i-github" viewBox="0 0 24 24"><title>GitHub</title><path d="M12 .297c-6.63 0-12 5.373-12 12 0 5.303 3.438 9.8 8.205 11.385.6.113.82-.258.82-.577 0-.285-.01-1.04-.015-2.04-3.338.724-4.042-1.61-4.042-1.61C4.422 18.07 3.633 17.7 3.633 17.7c-1.087-.744.084-.729.084-.729 1.205.084 1.838 1.236 1.838 1.236 1.07 1.835 2.809 1.305 3.495.998.108-.776.417-1.305.76-1.605-2.665-.3-5.466-1.332-5.466-5.93 0-1.31.465-2.38 1.235-3.22-.135-.303-.54-1.523.105-3.176 0 0 1.005-.322 3.3 1.23.96-.267 1.98-.399 3-.405 1.02.006 2.04.138 3 .405 2.28-1.552 3.285-1.23 3.285-1.23.645 1.653.24 2.873.12 3.176.765.84 1.23 1.91 1.23 3.22 0 4.61-2.805 5.625-5.475 5.92.42.36.81 1.096.81 2.22 0 1.606-.015 2.896-.015 3.286 0 .315.21.69.825.57C20.565 22.092 24 17.592 24 12.297c0-6.627-5.373-12-12-12"/></symbol><symbol id="i-gitlab" viewBox="0 0 24 24"><title>GitLab</title><path d="m23.6004 9.5927-.0337-.0862L20.3.9814a.851.851 0 0 0-.3362-.405.8748.8748 0 0 0-.9997.0539.8748.8748 0 0 0-.29.4399l-2.2055 6.748H7.5375l-2.2057-6.748a.8573.8573 0 0 0-.29-.4412.8748.8748 0 0 0-.9997-.0537.8585.8585 0 0 0-.3362.4049L.4332 9.5015l-.0325.0862a6.0657 6.0657 0 0 0 2.0119 7.0105l.0113.0087.03.0213 4.976 3.7264 2.462 1.8633 1.4995 1.1321a1.0085 1.0085 0 0 0 1.2197 0l1.4995-1.1321 2.4619-1.8633 5.006-3.7489.0125-.01a6.0682 6.0682 0 0 0 2.0094-7.003z"/></symbol><symbol id="i-keybase" viewBox="0 0 24 24"><title>Keybase</title><path d="M10.445 21.372a.953.953 0 1 1-.955-.954c.524 0 .951.43.951.955m5.923-.001a.953.953 0 1 1-.958-.954c.526 0 .954.43.954.955m4.544-9.16l-.156-.204c-.046-.06-.096-.116-.143-.175-.045-.06-.094-.113-.141-.169-.104-.12-.21-.239-.32-.359l-.075-.08-.091-.099-.135-.13c-.015-.019-.032-.035-.05-.054a10.87 10.87 0 0 0-3.955-2.504l-.23-.078.035-.083a4.109 4.109 0 0 0-.12-3.255 4.11 4.11 0 0 0-2.438-2.16c-.656-.216-1.23-.319-1.712-.305-.033-.105-.1-.577.496-1.848L10.662 0l-.287.399c-.33.455-.648.895-.945 1.328a1.857 1.857 0 0 0-1.245-.58L6.79 1.061h-.012c-.033-.003-.07-.003-.104-.003-.99 0-1.81.771-1.87 1.755l-.088 1.402v.003a1.876 1.876 0 0 0 1.755 1.98l1.002.06c-.065.84.073 1.62.405 2.306a11.28 11.28 0 0 0-3.66 2.484C.912 14.392.912 18.052.912 20.995v1.775l1.305-1.387c.266.93.652 1.807 1.145 2.615H5.06a9.197 9.197 0 0 1-1.68-3.848l1.913-2.03-.985 3.09 1.74-1.267c3.075-2.234 6.745-2.75 10.91-1.53 1.806.533 3.56.04 4.474-1.256l.104-.165c.09.498.14.998.14 1.496 0 1.563-.254 3.687-1.38 5.512h1.612c.776-1.563 1.181-3.432 1.181-5.512-.001-2.2-.786-4.421-2.184-6.274zM8.894 6.192c.122-1.002.577-1.949 1.23-2.97a1.36 1.36 0 0 0 1.283.749c.216-.008.604.025 1.233.232a2.706 2.706 0 0 1 1.608 1.425c.322.681.349 1.442.079 2.15a2.69 2.69 0 0 1-.806 1.108l-.408-.502-.002-.003a1.468 1.468 0 0 0-2.06-.205c-.334.27-.514.66-.534 1.058-1.2-.54-1.8-1.643-1.628-3.04zm4.304 5.11l-.52.425a.228.228 0 0 1-.323-.032l-.11-.135a.238.238 0 0 1 .034-.334l.51-.42-1.056-1.299a.307.307 0 0 1 .044-.436.303.303 0 0 1 .435.041l2.963 3.646a.309.309 0 0 1-.168.499.315.315 0 0 1-.31-.104l-.295-.365-1.045.854a.244.244 0 0 1-.154.055.237.237 0 0 1-.186-.09l-.477-.58a.24.24 0 0 1 .035-.335l1.05-.858-.425-.533zM7.752 4.866l-1.196-.075a.463.463 0 0 1-.435-.488l.09-1.4a.462.462 0 0 1 .461-.437h.024l1.401.091a.459.459 0 0 1 .433.488l-.007.101a9.27 9.27 0 0 0-.773 1.72zm12.525 11.482c-.565.805-1.687 1.08-2.924.718-3.886-1.141-7.397-.903-10.469.7l1.636-5.122-5.29 5.609c.098-3.762 2.452-6.967 5.757-8.312.471.373 1.034.66 1.673.841.16.044.322.074.48.102a1.41 1.41 0 0 0 .21 1.408l.075.09c-.172.45-.105.975.221 1.374l.476.582a1.39 1.39 0 0 0 1.079.513c.32 0 .635-.111.886-.314l.285-.232c.174.074.367.113.566.113a1.45 1.45 0 0 0 .928-.326c.623-.51.72-1.435.209-2.06l-1.67-2.057a4.07 4.07 0 0 0 .408-.38c.135.036.27.077.4.12.266.096.533.197.795.314a9.55 9.55 0 0 1 2.77 1.897c.03.03.06.055.086.083l.17.176c.038.039.076.079.11.12.08.085.16.175.24.267l.126.15c.045.053.086.104.13.16l.114.15c.04.05.079.102.117.154.838 1.149.987 2.329.404 3.157v.005zM7.718 4.115l-.835-.05.053-.836.834.051z"/></symbol><symbol id="i-liberadotchat" viewBox="0 0 24 24"><title>Libera.Chat</title><path d="m14.26446 2.76095-1.22973 9.43224-1.6484 1.88226L9.67694 2.7735h-.003a9.86072 9.86072 0 0 0-.19917.04247l-.067.01256a12.0901 12.0901 0 0 0-.13158.0305l-.0646.01555a12.0503 12.0503 0 0 0-1.7393.55086l-.03709.01855 3.39788 11.26306-.1579.18062-1.59816-.70397-.10465.13457L3.4452 6.09902a10.69674 10.69674 0 0 0-.92767 1.0473 12.5862 12.5862 0 0 0-.55146.7596v.00598l6.48115 7.08106-1.02158 1.31285-7.20486-4.1497a11.70731 11.70731 0 0 0-.2207 2.30931l6.85377 2.57547L5.2778 19.0661l-4.31.02034a12.18198 12.18198 0 0 0 1.21297 2.15261h.003l1.69625-.37322h.45038l4.86266-6.22276 1.5832.70098 3.33807-3.81237c1.84965 3.14502 3.84345 6.17068 5.65635 9.33714h.45337l-.0083-.01376 1.61251.36246.01556-.01794a11.03054 11.03054 0 0 0 .77455-1.25604 11.3919 11.3919 0 0 0 .35228-.72551l-3.78784-.064-1.3332-2.19567 6.1468-2.24172v-.0311a6.93926 6.93926 0 0 0 .0036-.20217v-.31223l-.0036-.06398v-.0676l-.003-.06757-.003-.067-.003-.06757-.003-.067-.0059-.0646-.003-.06757-.0066-.067-.003-.06757-.006-.064-.006-.06757-.006-.06758-.0066-.067-.006-.06458a9.69536 9.69536 0 0 0-.11304-.7961v-.01555l-6.50625 3.71908-1.0467-1.72436 5.7365-6.49311a10.80699 10.80699 0 0 0-.8876-1.16997 11.89718 11.89718 0 0 0-.69202-.7285l-4.72569 7.45488-1.37147-2.25848 2.1526-7.75393-.05502-.02093a11.6277 11.6277 0 0 0-2.00607-.59453 12.20035 12.20035 0 0 0-.13158-.0275zm-.1591 9.33116-3.24596 3.72086-1.5832-.65853-4.48346 5.7078h.49584l4.10365-5.25144 1.57423.65195 3.08387-3.53664 4.8507 8.15167.47729-.009zm-.07357 1.30149-2.91221 3.34405-1.60474-.65254-3.74538 4.77413 12.63513.0066z"/></symbol><symbol id="i-liberapay" viewBox="0 0 24 24"><title>Liberapay</title><path d="M2.32 0A2.321 2.321 0 0 0 0 2.32v19.36A2.321 2.321 0 0 0 2.32 24h19.36A2.32 2.32 0 0 0 24 21.68V2.32A2.32 2.32 0 0 0 21.68 0zm9.208 3.98l-2.27 9.405a2.953 2.953 0 0 0-.073.539.853.853 0 0 0 .09.432.7.7 0 0 0 .334.302c.157.077.378.126.661.147l-.49 2.008c-.772 0-1.38-.1-1.82-.3-.441-.203-.757-.477-.947-.826a2.391 2.391 0 0 1-.278-1.2c.005-.452.068-.933.188-1.445l2.074-8.67zm3.9 3.888c.61 0 1.135.092 1.576.277.44.185.802.438 1.085.76.283.32.493.696.629 1.126.136.43.204.89.204 1.379v.001c0 .794-.13 1.52-.392 2.179a5.16 5.16 0 0 1-1.086 1.706 4.84 4.84 0 0 1-1.665 1.118c-.648.267-1.353.4-2.114.4-.37 0-.74-.033-1.11-.098l-.735 2.956H9.403l2.71-11.298c.435-.13.934-.248 1.494-.351a10.045 10.045 0 0 1 1.821-.155zm-.31 2.041a4.67 4.67 0 0 0-.98.098l-1.143 4.752c.185.044.413.065.685.065.425 0 .812-.079 1.16-.237a2.556 2.556 0 0 0 .89-.661c.244-.283.435-.623.571-1.02a4.03 4.03 0 0 0 .204-1.315c0-.468-.104-.865-.31-1.192-.207-.326-.566-.49-1.077-.49z"/></symbol><symbol id="i-mastodon" viewBox="0 0 24 24"><title>Mastodon</title><path d="M23.268 5.313c-.35-2.578-2.617-4.61-5.304-5.004C17.51.242 15.792 0 11.813 0h-.03c-3.98 0-4.835.242-5.288.309C3.882.692 1.496 2.518.917 5.127.64 6.412.61 7.837.661 9.143c.074 1.874.088 3.745.26 5.611.118 1.24.325 2.47.62 3.68.55 2.237 2.777 4.098 4.96 4.857 2.336.792 4.849.923 7.256.38.265-.061.527-.132.786-.213.585-.184 1.27-.39 1.774-.753a.057.057 0 0 0 .023-.043v-1.809a.052.052 0 0 0-.02-.041.053.053 0 0 0-.046-.01 20.282 20.282 0 0 1-4.709.545c-2.73 0-3.463-1.284-3.674-1.818a5.593 5.593 0 0 1-.319-1.433.053.053 0 0 1 .066-.054c1.517.363 3.072.546 4.632.546.376 0 .75 0 1.125-.01 1.57-.044 3.224-.124 4.768-.422.038-.008.077-.015.11-.024 2.435-.464 4.753-1.92 4.989-5.604.008-.145.03-1.52.03-1.67.002-.512.167-3.63-.024-5.545zm-3.748 9.195h-2.561V8.29c0-1.309-.55-1.976-1.67-1.976-1.23 0-1.846.79-1.846 2.35v3.403h-2.546V8.663c0-1.56-.617-2.35-1.848-2.35-1.112 0-1.668.668-1.67 1.977v6.218H4.822V8.102c0-1.31.337-2.35 1.011-3.12.696-.77 1.608-1.164 2.74-1.164 1.311 0 2.302.5 2.962 1.498l.638 1.06.638-1.06c.66-.999 1.65-1.498 2.96-1.498 1.13 0 2.043.395 2.74 1.164.675.77 1.012 1.81 1.012 3.12z"/></symbol><symbol id="i-rss" viewBox="0 0 24 24"><title>RSS</title><path d="M19.199 24C19.199 13.467 10.533 4.8 0 4.8V0c13.165 0 24 10.835 24 24h-4.801zM3.291 17.415c1.814 0 3.293 1.479 3.293 3.295 0 1.813-1.485 3.29-3.301 3.29C1.47 24 0 22.526 0 20.71s1.475-3.294 3.291-3.295zM15.909 24h-4.665c0-6.169-5.075-11.245-11.244-11.245V8.09c8.727 0 15.909 7.184 15.909 15.91z"/></symbol><symbol id="i-stackoverflow" viewBox="0 0 24 24"><title>Stack Overflow</title><path d="M15.725 0l-1.72 1.277 6.39 8.588 1.716-1.277L15.725 0zm-3.94 3.418l-1.369 1.644 8.225 6.85 1.369-1.644-8.225-6.85zm-3.15 4.465l-.905 1.94 9.702 4.517.904-1.94-9.701-4.517zm-1.85 4.86l-.44 2.093 10.473 2.201.44-2.092-10.473-2.203zM1.89 15.47V24h19.19v-8.53h-2.133v6.397H4.021v-6.396H1.89zm4.265 2.133v2.13h10.66v-2.13H6.154Z"/></symbol></svg>